<svg xmlns="http://www.w3.org/2000/svg" xmlns:xlink="http://www.w3.org/1999/xlink" width="50" zoomAndPan="magnify" viewBox="0 0 37.5 37.499999" height="50" preserveAspectRatio="xMidYMid meet" version="1.0"><defs><clipPath id="eb6e94a8b1"><path d="M 9.546875 9.546875 L 25.832031 9.546875 L 25.832031 25.832031 L 9.546875 25.832031 Z M 9.546875 9.546875 " clip-rule="nonzero"/></clipPath><clipPath id="7e8537f657"><path d="M 11.066406 11.066406 L 24.386719 11.066406 L 24.386719 24.386719 L 11.066406 24.386719 Z M 11.066406 11.066406 " clip-rule="nonzero"/></clipPath><clipPath id="d1b8cbfb5a"><path d="M 13.027344 13.027344 L 22.648438 13.027344 L 22.648438 22.648438 L 13.027344 22.648438 Z M 13.027344 13.027344 " clip-rule="nonzero"/></clipPath></defs><g clip-path="url(#eb6e94a8b1)"><path fill="#38b6ff" d="M 17.722656 25.898438 C 13.207031 25.898438 9.546875 22.214844 9.546875 17.722656 C 9.546875 13.230469 13.207031 9.546875 17.722656 9.546875 C 22.242188 9.546875 25.898438 13.207031 25.898438 17.722656 C 25.898438 22.242188 22.214844 25.898438 17.722656 25.898438 Z M 17.722656 10.050781 C 13.484375 10.050781 10.050781 13.484375 10.050781 17.722656 C 10.050781 21.964844 13.484375 25.394531 17.722656 25.394531 C 21.964844 25.394531 25.394531 21.964844 25.394531 17.722656 C 25.394531 13.484375 21.9375 10.050781 17.722656 10.050781 Z M 17.722656 10.050781 " fill-opacity="1" fill-rule="nonzero"/></g><g clip-path="url(#7e8537f657)"><path fill="#ffde59" d="M 17.726562 24.386719 C 14.046875 24.386719 11.066406 21.386719 11.066406 17.726562 C 11.066406 14.066406 14.046875 11.066406 17.726562 11.066406 C 21.40625 11.066406 24.386719 14.046875 24.386719 17.726562 C 24.386719 21.40625 21.386719 24.386719 17.726562 24.386719 Z M 17.726562 11.476562 C 14.273438 11.476562 11.476562 14.273438 11.476562 17.726562 C 11.476562 21.179688 14.273438 23.976562 17.726562 23.976562 C 21.179688 23.976562 23.976562 21.179688 23.976562 17.726562 C 23.976562 14.273438 21.160156 11.476562 17.726562 11.476562 Z M 17.726562 11.476562 " fill-opacity="1" fill-rule="nonzero"/></g><g clip-path="url(#d1b8cbfb5a)"><path fill="#ff914d" d="M 17.722656 22.417969 C 15.128906 22.417969 13.027344 20.300781 13.027344 17.722656 C 13.027344 15.140625 15.128906 13.027344 17.722656 13.027344 C 20.316406 13.027344 22.417969 15.128906 22.417969 17.722656 C 22.417969 20.316406 20.300781 22.417969 17.722656 22.417969 Z M 17.722656 13.316406 C 15.285156 13.316406 13.316406 15.285156 13.316406 17.722656 C 13.316406 20.15625 15.285156 22.125 17.722656 22.125 C 20.15625 22.125 22.125 20.15625 22.125 17.722656 C 22.125 15.285156 20.140625 13.316406 17.722656 13.316406 Z M 17.722656 13.316406 " fill-opacity="1" fill-rule="nonzero"/></g></svg>